<svg xmlns="http://www.w3.org/2000/svg" viewBox="0 23.600000381469727 114.55000305175781 46.400001525878906" data-asc="1.2" width="114.55000305175781" height="46.400001525878906"><defs/><g fill="#b12020"><g transform="translate(0, 0)"><path d="M37.65 60Q36.05 60 34.58 59.10Q33.10 58.20 32.20 56.25Q31.30 54.30 31.30 51.25Q31.30 48.75 31.90 45.63Q32.50 42.50 33.48 39.35Q34.45 36.20 35.60 33.65Q32.15 35.95 29.55 40Q26.95 44.05 25.05 49.40Q25.45 51 25.70 52.40Q25.95 53.80 25.95 54.95Q25.95 57.15 24.90 58.40Q23.85 59.65 21.25 59.65Q18.95 59.65 17.88 58.63Q16.80 57.60 16.80 55.75Q16.80 54.55 17.23 53Q17.65 51.45 18.45 49.65Q17.55 47 16.25 43.67Q14.95 40.35 12.60 36.40Q11.90 39.35 11.18 42.27Q10.45 45.20 9.98 47.67Q9.50 50.15 9.50 51.85Q9.50 54.60 11 54.60L11.10 54.70Q11.10 56.35 10.28 57.52Q9.45 58.70 8.18 59.33Q6.90 59.95 5.50 59.95Q4.15 59.95 2.88 59.30Q1.60 58.65 0.80 57.27Q0 55.90 0 53.75Q0 51.70 0.73 49.27Q1.45 46.85 2.55 44.33Q3.65 41.80 4.80 39.38Q5.95 36.95 6.88 34.83Q7.80 32.70 8.10 31.10Q7.10 30.40 5.95 30.40Q5 30.40 4.03 31.02Q3.05 31.65 2.20 33.10L1.85 32.95Q1.90 30.40 2.95 28.27Q4 26.15 5.73 24.88Q7.45 23.60 9.50 23.60Q11.85 23.60 14.35 25.65Q16.85 27.70 18.98 32.40Q21.10 37.10 22.40 45.10Q24.30 38.95 26.50 34.80Q28.70 30.65 31.02 28.20Q33.35 25.75 35.63 24.67Q37.90 23.60 39.95 23.60Q42.50 23.60 44.53 24.85Q46.55 26.10 47.73 28Q48.90 29.90 48.90 31.80Q47.65 31.45 46.43 31.30Q45.20 31.15 44.05 31.15Q42.90 31.15 41.85 31.30Q41.40 33.60 40.90 36.42Q40.40 39.25 40.03 42.10Q39.65 44.95 39.65 47.35Q39.65 49.80 40.15 51.35Q40.65 52.90 41.90 52.90Q42.70 52.90 43.53 52.20Q44.35 51.50 44.75 50.05L45.10 50.20Q45.10 53.50 44 55.67Q42.90 57.85 41.18 58.92Q39.45 60 37.65 60ZM53.10 60.30Q51.05 60.30 49.70 59Q48.35 57.70 48.35 55.80Q48.35 53.65 49.93 52.13Q51.50 50.60 53.80 50.60Q55.85 50.60 57.23 51.90Q58.60 53.20 58.60 55.10Q58.60 57.25 57.00 58.77Q55.40 60.30 53.10 60.30ZM65.90 70Q64.65 70 63.53 69.35Q62.40 68.70 61.68 67.25Q60.95 65.80 60.95 63.35Q60.95 61 61.58 58.25Q62.20 55.50 63.00 52.73Q63.80 49.95 64.43 47.45Q65.05 44.95 65.05 43Q65.05 41.55 64.65 41.02Q64.25 40.50 63.70 40.50Q63.20 40.50 62.70 40.80Q62.20 41.10 61.85 41.50L61.50 41.30Q61.50 39.55 62.53 38.08Q63.55 36.60 65.15 35.70Q66.75 34.80 68.45 34.80Q70.10 34.80 71.10 35.63Q72.10 36.45 72.63 37.75Q73.15 39.05 73.25 40.55Q75.15 37.55 77.40 36.10Q79.65 34.65 81.65 34.65Q84.35 34.65 86.23 37.20Q88.10 39.75 88.10 45.10Q88.10 50.10 86.50 53.48Q84.90 56.85 82.48 58.52Q80.05 60.20 77.55 60.20Q75.40 60.20 73.58 58.92Q71.75 57.65 70.75 55.20Q70.30 57.25 69.98 59.25Q69.65 61.25 69.65 63.15Q69.65 64.20 69.78 65.20Q69.90 66.20 70.20 67.20L70.20 67.50Q69.55 68.75 68.38 69.38Q67.20 70 65.90 70M75.10 55.35Q76.30 55.35 77.20 54.40Q78.10 53.45 78.75 51.92Q79.40 50.40 79.73 48.65Q80.05 46.90 80.05 45.25Q80.05 43.15 79.50 41.67Q78.95 40.20 77.80 40.20Q76.35 40.20 74.55 43.13Q72.75 46.05 71.75 52Q72.20 53.55 73.10 54.45Q74 55.35 75.10 55.35ZM101.20 70Q98.70 70 97.18 68.47Q95.65 66.95 95.65 64.35Q95.65 63 96.13 61.38Q96.60 59.75 97.70 57.95Q95.25 57.80 93.68 56.30Q92.10 54.80 92.10 51.75Q92.10 49.95 92.58 47.88Q93.05 45.80 93.50 43.97Q93.95 42.15 93.95 41.15Q93.95 40.40 93.65 40.08Q93.35 39.75 92.95 39.75Q92.55 39.75 92.08 40.08Q91.60 40.40 91.35 41.05L90.50 40.15Q90.80 38.60 91.80 37.40Q92.80 36.20 94.25 35.50Q95.70 34.80 97.25 34.80Q99.00 34.80 100.30 35.92Q101.60 37.05 101.60 40Q101.60 41.85 101.15 43.97Q100.70 46.10 100.25 47.98Q99.80 49.85 99.80 50.95Q99.80 51.95 100.23 52.42Q100.65 52.90 101.20 52.90Q101.90 52.90 102.80 52.13Q103.70 51.35 104.50 49.55Q105.30 47.75 105.55 44.70Q105.65 43.75 105.70 42.27Q105.75 40.80 105.80 39.52Q105.85 38.25 105.85 37.95Q105.85 36.15 107.18 35.42Q108.50 34.70 110.10 34.70Q111.50 34.70 112.75 35.25Q114.00 35.80 114.45 37.10L114.55 37.40Q114.10 37.80 113.78 40.10Q113.45 42.40 113.00 46.25Q112.70 48.75 112.25 51.90Q111.80 55.05 111.03 58.23Q110.25 61.40 108.98 64.08Q107.70 66.75 105.80 68.38Q103.90 70 101.20 70M100.00 64.25Q101.55 64.25 102.78 61.42Q104.00 58.60 104.70 53.40Q101.50 57.50 100.30 59.85Q99.10 62.20 99.10 63.25Q99.10 64.25 100.00 64.25Z"/></g></g></svg>